<mxfile host="app.diagrams.net" agent="Mozilla/5.0 (Windows NT 10.0; Win64; x64) AppleWebKit/537.36 (KHTML, like Gecko) Chrome/134.0.0.0 Safari/537.36 OPR/119.0.0.0" version="27.1.5">
  <diagram id="C5RBs43oDa-KdzZeNtuy" name="Page-1">
    <mxGraphModel dx="1611" dy="778" grid="1" gridSize="10" guides="1" tooltips="1" connect="1" arrows="1" fold="1" page="1" pageScale="1" pageWidth="827" pageHeight="1169" math="0" shadow="0">
      <root>
        <mxCell id="WIyWlLk6GJQsqaUBKTNV-0" />
        <mxCell id="WIyWlLk6GJQsqaUBKTNV-1" parent="WIyWlLk6GJQsqaUBKTNV-0" />
        <mxCell id="R_DNrfys4CtITKk0-1BR-4" style="edgeStyle=orthogonalEdgeStyle;rounded=0;orthogonalLoop=1;jettySize=auto;html=1;" edge="1" parent="WIyWlLk6GJQsqaUBKTNV-1" source="R_DNrfys4CtITKk0-1BR-1" target="R_DNrfys4CtITKk0-1BR-2">
          <mxGeometry relative="1" as="geometry" />
        </mxCell>
        <mxCell id="R_DNrfys4CtITKk0-1BR-1" value="Urgent Notification" style="rounded=1;whiteSpace=wrap;html=1;" vertex="1" parent="WIyWlLk6GJQsqaUBKTNV-1">
          <mxGeometry x="354" y="70" width="120" height="60" as="geometry" />
        </mxCell>
        <mxCell id="R_DNrfys4CtITKk0-1BR-5" style="edgeStyle=orthogonalEdgeStyle;rounded=0;orthogonalLoop=1;jettySize=auto;html=1;" edge="1" parent="WIyWlLk6GJQsqaUBKTNV-1" source="R_DNrfys4CtITKk0-1BR-2" target="R_DNrfys4CtITKk0-1BR-3">
          <mxGeometry relative="1" as="geometry" />
        </mxCell>
        <mxCell id="R_DNrfys4CtITKk0-1BR-2" value="A&amp;nbsp;&lt;div&gt;=&lt;/div&gt;&lt;div&gt;Get Reservation Start Date List&lt;/div&gt;" style="shape=parallelogram;perimeter=parallelogramPerimeter;whiteSpace=wrap;html=1;fixedSize=1;" vertex="1" parent="WIyWlLk6GJQsqaUBKTNV-1">
          <mxGeometry x="314" y="180" width="200" height="60" as="geometry" />
        </mxCell>
        <mxCell id="R_DNrfys4CtITKk0-1BR-8" style="edgeStyle=orthogonalEdgeStyle;rounded=0;orthogonalLoop=1;jettySize=auto;html=1;" edge="1" parent="WIyWlLk6GJQsqaUBKTNV-1" source="R_DNrfys4CtITKk0-1BR-3" target="R_DNrfys4CtITKk0-1BR-7">
          <mxGeometry relative="1" as="geometry" />
        </mxCell>
        <mxCell id="R_DNrfys4CtITKk0-1BR-3" value="B&lt;div&gt;=&lt;div&gt;Get Current Date&lt;/div&gt;&lt;/div&gt;" style="shape=parallelogram;perimeter=parallelogramPerimeter;whiteSpace=wrap;html=1;fixedSize=1;" vertex="1" parent="WIyWlLk6GJQsqaUBKTNV-1">
          <mxGeometry x="314" y="300" width="200" height="60" as="geometry" />
        </mxCell>
        <mxCell id="R_DNrfys4CtITKk0-1BR-12" style="edgeStyle=orthogonalEdgeStyle;rounded=0;orthogonalLoop=1;jettySize=auto;html=1;" edge="1" parent="WIyWlLk6GJQsqaUBKTNV-1" source="R_DNrfys4CtITKk0-1BR-7" target="R_DNrfys4CtITKk0-1BR-11">
          <mxGeometry relative="1" as="geometry" />
        </mxCell>
        <mxCell id="R_DNrfys4CtITKk0-1BR-13" value="Yes" style="edgeLabel;html=1;align=center;verticalAlign=middle;resizable=0;points=[];" vertex="1" connectable="0" parent="R_DNrfys4CtITKk0-1BR-12">
          <mxGeometry x="-0.2533" y="3" relative="1" as="geometry">
            <mxPoint as="offset" />
          </mxGeometry>
        </mxCell>
        <mxCell id="R_DNrfys4CtITKk0-1BR-14" style="edgeStyle=orthogonalEdgeStyle;rounded=0;orthogonalLoop=1;jettySize=auto;html=1;exitX=1;exitY=0.5;exitDx=0;exitDy=0;entryX=1;entryY=0.5;entryDx=0;entryDy=0;" edge="1" parent="WIyWlLk6GJQsqaUBKTNV-1" source="R_DNrfys4CtITKk0-1BR-7" target="R_DNrfys4CtITKk0-1BR-2">
          <mxGeometry relative="1" as="geometry">
            <mxPoint x="690" y="150" as="targetPoint" />
            <mxPoint x="454" y="460" as="sourcePoint" />
            <Array as="points">
              <mxPoint x="560" y="440" />
              <mxPoint x="560" y="210" />
            </Array>
          </mxGeometry>
        </mxCell>
        <mxCell id="R_DNrfys4CtITKk0-1BR-16" value="No" style="edgeLabel;html=1;align=center;verticalAlign=middle;resizable=0;points=[];" vertex="1" connectable="0" parent="R_DNrfys4CtITKk0-1BR-14">
          <mxGeometry x="-0.7347" y="3" relative="1" as="geometry">
            <mxPoint as="offset" />
          </mxGeometry>
        </mxCell>
        <mxCell id="R_DNrfys4CtITKk0-1BR-7" value="A-B &amp;lt;= 5" style="rhombus;whiteSpace=wrap;html=1;" vertex="1" parent="WIyWlLk6GJQsqaUBKTNV-1">
          <mxGeometry x="374" y="400" width="80" height="80" as="geometry" />
        </mxCell>
        <mxCell id="R_DNrfys4CtITKk0-1BR-18" value="" style="edgeStyle=orthogonalEdgeStyle;rounded=0;orthogonalLoop=1;jettySize=auto;html=1;entryX=0.5;entryY=0;entryDx=0;entryDy=0;" edge="1" parent="WIyWlLk6GJQsqaUBKTNV-1" source="R_DNrfys4CtITKk0-1BR-11" target="R_DNrfys4CtITKk0-1BR-22">
          <mxGeometry relative="1" as="geometry">
            <mxPoint x="414" y="710" as="targetPoint" />
          </mxGeometry>
        </mxCell>
        <mxCell id="R_DNrfys4CtITKk0-1BR-11" value="Get Reservation Info" style="shape=parallelogram;perimeter=parallelogramPerimeter;whiteSpace=wrap;html=1;fixedSize=1;" vertex="1" parent="WIyWlLk6GJQsqaUBKTNV-1">
          <mxGeometry x="336" y="580" width="156" height="60" as="geometry" />
        </mxCell>
        <mxCell id="R_DNrfys4CtITKk0-1BR-22" value="Send Reservation Alert" style="ellipse;whiteSpace=wrap;html=1;" vertex="1" parent="WIyWlLk6GJQsqaUBKTNV-1">
          <mxGeometry x="337" y="750" width="154" height="60" as="geometry" />
        </mxCell>
      </root>
    </mxGraphModel>
  </diagram>
</mxfile>
